<?xml version="1.0" encoding="UTF-8"?>
<svg width="1200" height="800" version="1.1" xmlns="http://www.w3.org/2000/svg">
  <!-- Arena Floor -->
  <rect width="1200" height="800" fill="#D2B48C"/>
  
  <!-- Arena Border -->
  <rect x="50" y="50" width="1100" height="700" fill="none" stroke="#8B4513" stroke-width="20"/>
  
  <!-- Grid Pattern -->
  <g stroke="#A0522D" stroke-width="2" opacity="0.2">
    <!-- Horizontal Grid Lines -->
    <line x1="50" y1="150" x2="1150" y2="150"/>
    <line x1="50" y1="250" x2="1150" y2="250"/>
    <line x1="50" y1="350" x2="1150" y2="350"/>
    <line x1="50" y1="450" x2="1150" y2="450"/>
    <line x1="50" y1="550" x2="1150" y2="550"/>
    <line x1="50" y1="650" x2="1150" y2="650"/>
    
    <!-- Vertical Grid Lines -->
    <line x1="150" y1="50" x2="150" y2="750"/>
    <line x1="250" y1="50" x2="250" y2="750"/>
    <line x1="350" y1="50" x2="350" y2="750"/>
    <line x1="450" y1="50" x2="450" y2="750"/>
    <line x1="550" y1="50" x2="550" y2="750"/>
    <line x1="650" y1="50" x2="650" y2="750"/>
    <line x1="750" y1="50" x2="750" y2="750"/>
    <line x1="850" y1="50" x2="850" y2="750"/>
    <line x1="950" y1="50" x2="950" y2="750"/>
    <line x1="1050" y1="50" x2="1050" y2="750"/>
  </g>
  
  <!-- Combat Zones -->
  <g fill="#8B4513" opacity="0.1">
    <circle cx="300" cy="200" r="100"/>
    <circle cx="900" cy="200" r="100"/>
    <circle cx="300" cy="600" r="100"/>
    <circle cx="900" cy="600" r="100"/>
    <circle cx="600" cy="400" r="150"/>
  </g>
  
  <!-- Corner Posts -->
  <g fill="#8B4513">
    <circle cx="50" cy="50" r="25"/>
    <circle cx="1150" cy="50" r="25"/>
    <circle cx="50" cy="750" r="25"/>
    <circle cx="1150" cy="750" r="25"/>
  </g>
  
  <!-- Arena Markings -->
  <g stroke="#8B4513" stroke-width="5" fill="none">
    <circle cx="600" cy="400" r="200"/>
    <circle cx="600" cy="400" r="50"/>
    <line x1="400" y1="400" x2="800" y2="400"/>
    <line x1="600" y1="200" x2="600" y2="600"/>
  </g>
</svg>