<?xml version="1.0" encoding="UTF-8"?>
<svg width="1200" height="800" version="1.1" xmlns="http://www.w3.org/2000/svg">
  <!-- Ground -->
  <rect width="1200" height="800" fill="#228B22"/>
  
  <!-- Paths -->
  <path d="M100 0 L150 800" stroke="#8B4513" stroke-width="20" fill="none"/>
  <path d="M900 0 L850 800" stroke="#8B4513" stroke-width="20" fill="none"/>
  
  <!-- Tree Clusters (Top View) -->
  <g fill="#006400">
    <!-- Cluster 1 -->
    <circle cx="100" cy="100" r="40"/>
    <circle cx="150" cy="80" r="35"/>
    <circle cx="130" cy="140" r="45"/>
    
    <!-- Cluster 2 -->
    <circle cx="400" cy="200" r="50"/>
    <circle cx="450" cy="180" r="40"/>
    <circle cx="380" cy="250" r="45"/>
    
    <!-- Cluster 3 -->
    <circle cx="800" cy="400" r="45"/>
    <circle cx="850" cy="380" r="40"/>
    <circle cx="780" cy="440" r="50"/>
    
    <!-- Cluster 4 -->
    <circle cx="200" cy="600" r="40"/>
    <circle cx="250" cy="580" r="35"/>
    <circle cx="180" cy="640" r="45"/>
    
    <!-- Cluster 5 -->
    <circle cx="900" cy="700" r="50"/>
    <circle cx="950" cy="680" r="40"/>
    <circle cx="880" cy="740" r="45"/>
  </g>
  
  <!-- Bushes (Top View) -->
  <g fill="#1B5E20">
    <circle cx="50" cy="200" r="20"/>
    <circle cx="300" cy="350" r="25"/>
    <circle cx="600" cy="150" r="22"/>
    <circle cx="750" cy="600" r="28"/>
    <circle cx="1000" cy="300" r="24"/>
    <circle cx="1100" cy="700" r="26"/>
  </g>
  
  <!-- Terrain Details -->
  <g fill="#1B5E20" opacity="0.3">
    <circle cx="150" cy="300" r="100"/>
    <circle cx="600" cy="400" r="150"/>
    <circle cx="900" cy="200" r="120"/>
    <circle cx="400" cy="600" r="130"/>
  </g>
</svg>