<?xml version="1.0" encoding="UTF-8"?>
<svg width="1200" height="800" version="1.1" xmlns="http://www.w3.org/2000/svg">
  <!-- Base Ground -->
  <rect width="1200" height="800" fill="#808080"/>
  
  <!-- Main Streets -->
  <g fill="#404040">
    <!-- Horizontal Streets -->
    <rect x="0" y="150" width="1200" height="100"/>
    <rect x="0" y="450" width="1200" height="100"/>
    <!-- Vertical Streets -->
    <rect x="250" y="0" width="100" height="800"/>
    <rect x="850" y="0" width="100" height="800"/>
  </g>
  
  <!-- Street Lines -->
  <g stroke="#FFFFFF" stroke-width="4" stroke-dasharray="30 20">
    <line x1="0" y1="200" x2="1200" y2="200"/>
    <line x1="0" y1="500" x2="1200" y2="500"/>
    <line x1="300" y1="0" x2="300" y2="800"/>
    <line x1="900" y1="0" x2="900" y2="800"/>
  </g>
  
  <!-- Buildings (Top View) -->
  <g fill="#A9A9A9" stroke="#696969" stroke-width="2">
    <!-- Block 1 -->
    <rect x="50" y="50" width="150" height="80"/>
    <rect x="50" y="300" width="120" height="100"/>
    
    <!-- Block 2 -->
    <rect x="400" y="50" width="200" height="80"/>
    <rect x="450" y="300" width="150" height="120"/>
    
    <!-- Block 3 -->
    <rect x="400" y="600" width="180" height="150"/>
    <rect x="650" y="650" width="150" height="100"/>
    
    <!-- Block 4 -->
    <rect x="1000" y="50" width="150" height="80"/>
    <rect x="1000" y="600" width="170" height="150"/>
  </g>
  
  <!-- Building Details -->
  <g fill="#808080" opacity="0.5">
    <rect x="70" y="60" width="30" height="60"/>
    <rect x="420" y="60" width="40" height="60"/>
    <rect x="470" y="320" width="30" height="80"/>
    <rect x="1020" y="620" width="40" height="110"/>
  </g>
  
  <!-- Parking Lots -->
  <g fill="#696969">
    <rect x="50" y="600" width="100" height="150"/>
    <rect x="650" y="50" width="150" height="80"/>
  </g>
  
  <!-- Parking Lines -->
  <g stroke="#FFFFFF" stroke-width="1" opacity="0.5">
    <!-- Lot 1 -->
    <line x1="60" y1="610" x2="60" y2="740"/>
    <line x1="80" y1="610" x2="80" y2="740"/>
    <line x1="100" y1="610" x2="100" y2="740"/>
    <line x1="120" y1="610" x2="120" y2="740"/>
    <!-- Lot 2 -->
    <line x1="660" y1="60" x2="790" y2="60"/>
    <line x1="660" y1="80" x2="790" y2="80"/>
    <line x1="660" y1="100" x2="790" y2="100"/>
    <line x1="660" y1="120" x2="790" y2="120"/>
  </g>
</svg>